<?xml version="1.0" encoding="UTF-8" standalone="no"?>
<!DOCTYPE svg PUBLIC "-//W3C//DTD SVG 1.1//EN" "http://www.w3.org/Graphics/SVG/1.1/DTD/svg11.dtd">
<!-- Created with Vectornator (http://vectornator.io/) -->
<svg height="100%" stroke-miterlimit="10" style="fill-rule:nonzero;clip-rule:evenodd;stroke-linecap:round;stroke-linejoin:round;" version="1.1" viewBox="0 0 469.04 189.627" width="100%" xml:space="preserve" xmlns="http://www.w3.org/2000/svg" xmlns:vectornator="http://vectornator.io" xmlns:xlink="http://www.w3.org/1999/xlink">
<defs/>
<clipPath id="ArtboardFrame">
<rect height="189.627" width="469.04" x="0" y="0"/>
</clipPath>
<g clip-path="url(#ArtboardFrame)" id="Layer-1" vectornator:layerName="Layer 1">
<g opacity="1" vectornator:layerName="Group 15">
<g opacity="1" vectornator:layerName="Group 13">
<g fill="#454372" opacity="1" stroke="none" vectornator:layerName="Text 1">
<path d="M195.406 71.1556C195.552 68.6218 195.625 62.1231 195.625 51.6595C195.625 46.0632 195.552 42.235 195.406 40.1751C188.935 40.4486 185.28 40.5853 184.442 40.5853C183.639 40.5853 183.084 40.4577 182.774 40.2025C182.464 39.9473 182.309 39.4642 182.309 38.7533C182.309 37.7324 182.564 36.6205 183.074 35.4173C186.173 36.2376 190.667 36.6478 196.555 36.6478L213.645 36.6478C214.447 36.6478 215.007 36.78 215.326 37.0443C215.645 37.3086 215.805 37.7871 215.805 38.4798C215.805 39.7559 215.431 40.9681 214.684 42.1166C211.639 40.8223 207.684 40.1751 202.817 40.1751L201.887 40.1751C201.741 42.235 201.668 46.1725 201.668 51.9876C201.668 62.2324 201.741 68.6218 201.887 71.1556L205.797 71.1556C206.016 71.7025 206.125 72.2311 206.125 72.7416C206.125 73.1973 206.034 73.5163 205.852 73.6986C205.669 73.8809 205.35 73.972 204.895 73.972L191.496 73.972C191.259 73.3522 191.141 72.778 191.141 72.2494C191.141 71.8666 191.236 71.5886 191.428 71.4154C191.619 71.2422 191.934 71.1556 192.371 71.1556L195.406 71.1556Z"/>
<path d="M221.438 47.0658C221.438 45.7168 221.406 44.2722 221.342 42.7318C221.278 41.1914 221.151 40.1022 220.959 39.4642C220.768 38.8262 220.449 38.416 220.002 38.2337C219.556 38.0515 218.986 37.9603 218.293 37.9603C218.056 37.3952 217.938 36.8392 217.938 36.2923C217.938 35.7272 218.166 35.3718 218.621 35.2259C219.077 35.0801 220.581 35.0072 223.133 35.0072C224.573 35.0072 225.548 35.0755 226.059 35.2123C226.569 35.349 226.861 35.6042 226.934 35.9779C227.007 36.3516 227.043 36.9942 227.043 37.9056L227.043 49.472C228.173 48.7246 229.545 48.0638 231.158 47.4896C232.772 46.9154 234.453 46.6283 236.203 46.6283C238.445 46.6283 240.182 47.1888 241.412 48.3099C242.643 49.431 243.258 51.5684 243.258 54.722C243.258 64.5293 243.399 69.7246 243.682 70.308C243.964 70.8913 244.616 71.1738 245.637 71.1556C245.837 71.6843 245.938 72.2129 245.938 72.7416C245.938 73.2337 245.783 73.5619 245.473 73.7259C245.163 73.89 244.589 73.972 243.75 73.972C241.216 73.972 239.667 73.9401 239.102 73.8763C238.537 73.8125 238.154 73.6211 237.953 73.3021C237.753 72.9831 237.653 72.4499 237.653 71.7025L237.653 59.9173C237.653 56.1621 237.256 53.6647 236.463 52.4251C235.67 51.1856 234.389 50.5658 232.621 50.5658C231.108 50.5658 229.8 50.9942 228.697 51.8509C227.595 52.7077 227.043 54.2481 227.043 56.472L227.043 62.2416C227.043 65.4681 227.107 68.4395 227.235 71.1556L230.27 71.1556C230.488 71.6296 230.598 72.14 230.598 72.6869C230.598 73.1791 230.498 73.5163 230.297 73.6986C230.097 73.8809 229.714 73.972 229.149 73.972L218.403 73.972C218.166 73.3887 218.047 72.8418 218.047 72.3314C218.047 71.9304 218.147 71.6341 218.348 71.4427C218.548 71.2513 218.876 71.1556 219.332 71.1556L221.219 71.1556C221.365 68.2572 221.438 65.1035 221.438 61.6947L221.438 47.0658Z"/>
<path d="M262.781 50.1556C260.959 50.1556 259.573 50.8073 258.625 52.1107C257.677 53.4141 257.158 55.4512 257.067 58.222L259.883 58.222C262.873 58.222 264.91 58.1628 265.994 58.0443C267.079 57.9258 267.708 57.7298 267.881 57.4564C268.054 57.183 268.141 56.6725 268.141 55.9251C268.141 54.1205 267.685 52.7077 266.774 51.6869C265.862 50.666 264.531 50.1556 262.781 50.1556ZM263.82 46.4916C267.211 46.4916 269.727 47.2936 271.367 48.8978C273.008 50.502 273.828 53.1452 273.828 56.8275C273.828 58.4499 273.537 59.5801 272.953 60.2181C272.37 60.8561 271.094 61.1751 269.125 61.1751L257.039 61.1751C257.076 64.1465 257.673 66.4798 258.83 68.1751C259.988 69.8705 262.034 70.7181 264.969 70.7181C267.703 70.7181 270.246 70.0072 272.598 68.5853C273.382 69.3692 273.774 70.1986 273.774 71.0736C273.774 72.2949 272.766 73.1517 270.752 73.6439C268.738 74.1361 266.464 74.3822 263.93 74.3822C259.263 74.3822 255.914 73.3932 253.881 71.4154C251.848 69.4375 250.832 66.1061 250.832 61.4212C250.832 56.8093 251.976 53.168 254.264 50.4974C256.552 47.8268 259.737 46.4916 263.82 46.4916Z"/>
<path d="M306.914 36.1009C310.378 36.1009 313.176 36.7845 315.309 38.1517C317.442 39.5189 318.508 41.8431 318.508 45.1244C318.508 49.7181 316.038 52.9811 311.098 54.9134C316.749 56.0619 319.574 58.8327 319.574 63.2259C319.574 66.6712 318.139 69.4147 315.268 71.4564C312.397 73.4981 308.309 74.5189 303.004 74.5189C299.304 74.5189 296.916 74.3503 295.84 74.013C294.764 73.6758 294.227 72.9512 294.227 71.8392C294.227 70.7819 294.628 69.6973 295.43 68.5853C299.003 70.0619 302.093 70.8001 304.699 70.8001C307.215 70.8001 309.216 70.2852 310.701 69.2552C312.187 68.2253 312.93 66.6257 312.93 64.4564C312.93 62.0319 312.064 60.1725 310.332 58.8783C308.6 57.584 306.249 56.9369 303.278 56.9369L302.211 56.9369C301.755 56.9369 301.418 56.8275 301.199 56.6087C300.981 56.39 300.871 56.0163 300.871 55.4876C300.871 54.6673 301.072 53.9108 301.473 53.2181L303.715 53.2181C306.632 53.2181 308.723 52.653 309.99 51.5228C311.257 50.3926 311.891 48.8158 311.891 46.7923C311.891 44.3314 311.266 42.5541 310.018 41.4603C308.769 40.3666 307.142 39.8197 305.137 39.8197C303.624 39.8197 302.266 39.9291 301.063 40.1478C300.534 41.2051 300.22 41.7702 300.119 41.8431C300.019 41.916 299.522 42.0755 298.629 42.3216C297.736 42.5677 297.075 42.5222 296.647 42.1849C296.218 41.8477 295.808 41.2233 295.416 40.3119C295.024 39.4004 294.828 38.6712 294.828 38.1244C294.828 37.7598 294.942 37.5137 295.17 37.3861C295.398 37.2585 296.624 37.0124 298.848 36.6478C301.072 36.2832 303.761 36.1009 306.914 36.1009Z"/>
<path d="M197.594 101.648C198.469 104.82 199.69 108.848 201.258 113.734C202.826 118.619 204.047 122.607 204.922 125.697C205.797 128.786 206.298 130.331 206.426 130.331C206.554 130.331 207.775 126.403 210.09 118.546C212.405 110.689 213.955 105.057 214.738 101.648L225.813 101.648C226.031 102.195 226.141 102.723 226.141 103.234C226.141 103.689 226.05 104.008 225.867 104.191C225.685 104.373 225.366 104.464 224.91 104.464L223.106 104.464C223.033 107.818 223.087 113.305 223.27 120.925C223.452 128.545 223.634 133.622 223.817 136.156L226.469 136.156C226.706 136.702 226.824 137.231 226.824 137.742C226.824 138.197 226.733 138.516 226.551 138.699C226.369 138.881 226.041 138.972 225.567 138.972L214.848 138.972C214.611 138.352 214.492 137.778 214.492 137.249C214.492 136.867 214.588 136.589 214.779 136.415C214.971 136.242 215.285 136.156 215.723 136.156L217.336 136.156C217.482 132.984 217.418 123.341 217.145 107.226C215.723 112.695 214.082 118.264 212.223 123.933C210.363 129.602 209.133 132.956 208.531 133.995C207.93 135.035 206.955 135.554 205.606 135.554C203.673 135.554 202.593 135.481 202.365 135.335C202.138 135.189 200.916 132.004 198.701 125.779C196.486 119.553 194.541 113.324 192.863 107.089C192.809 123.295 192.845 132.984 192.973 136.156L195.516 136.156C195.735 136.702 195.844 137.231 195.844 137.742C195.844 138.197 195.753 138.516 195.57 138.699C195.388 138.881 195.069 138.972 194.613 138.972L184.551 138.972C184.332 138.352 184.223 137.778 184.223 137.249C184.223 136.867 184.319 136.589 184.51 136.415C184.701 136.242 185.016 136.156 185.453 136.156L187.449 136.156C187.65 133.622 187.837 128.545 188.01 120.925C188.183 113.305 188.251 107.818 188.215 104.464L185.453 104.464C185.235 103.844 185.125 103.27 185.125 102.742C185.125 102.359 185.221 102.081 185.412 101.908C185.604 101.734 185.918 101.648 186.356 101.648L197.594 101.648Z"/>
<path d="M254.852 127.98C254.852 131.644 254.998 133.895 255.289 134.734C255.581 135.572 256.164 135.946 257.039 135.855C257.258 136.292 257.367 136.721 257.367 137.14C257.367 137.814 256.848 138.334 255.809 138.699C254.77 139.063 253.758 139.245 252.774 139.245C252.136 139.245 251.671 139.118 251.379 138.863C251.087 138.607 250.632 137.915 250.012 136.785C248.554 137.623 247.045 138.288 245.486 138.781C243.928 139.273 242.292 139.519 240.578 139.519C238.318 139.519 236.563 138.895 235.315 137.646C234.066 136.397 233.442 134.105 233.442 130.769C233.442 124.261 233.41 120.31 233.346 118.915C233.282 117.521 233.132 116.559 232.895 116.031C232.658 115.502 232.348 115.174 231.965 115.046C231.582 114.919 231.163 114.855 230.707 114.855C230.47 114.472 230.352 114.044 230.352 113.57C230.352 112.932 230.798 112.494 231.692 112.257C232.585 112.02 233.824 111.902 235.41 111.902C236.668 111.902 237.529 111.979 237.994 112.134C238.459 112.289 238.751 112.544 238.869 112.9C238.988 113.255 239.047 114.454 239.047 116.495L239.047 126.804C239.047 130.541 239.462 132.984 240.291 134.132C241.121 135.281 242.274 135.855 243.75 135.855C244.789 135.855 245.801 135.636 246.785 135.199C247.77 134.761 248.431 134.15 248.768 133.367C249.105 132.583 249.274 131.07 249.274 128.827C249.274 123.614 249.251 120.333 249.205 118.984C249.16 117.635 249.032 116.673 248.822 116.099C248.613 115.525 248.335 115.174 247.988 115.046C247.642 114.919 247.195 114.855 246.649 114.855C246.412 114.472 246.293 114.044 246.293 113.57C246.293 112.932 246.763 112.494 247.701 112.257C248.64 112.02 249.811 111.902 251.215 111.902C252.473 111.902 253.334 111.979 253.799 112.134C254.264 112.289 254.556 112.567 254.674 112.968C254.792 113.369 254.852 114.591 254.852 116.632L254.852 127.98Z"/>
<path d="M274.047 111.492C276.453 111.492 278.363 111.724 279.776 112.189C281.188 112.654 281.895 113.406 281.895 114.445C281.895 115.52 281.439 116.587 280.528 117.644C276.955 115.985 274.129 115.156 272.051 115.156C270.647 115.156 269.595 115.42 268.893 115.949C268.191 116.477 267.84 117.243 267.84 118.245C267.84 119.285 268.236 120.141 269.029 120.816C269.822 121.49 271.449 122.283 273.91 123.195C277.009 124.288 279.215 125.423 280.528 126.599C281.84 127.775 282.496 129.393 282.496 131.452C282.496 134.059 281.494 136.055 279.488 137.441C277.483 138.826 274.63 139.519 270.93 139.519C268.104 139.519 265.949 139.318 264.463 138.917C262.977 138.516 262.235 137.678 262.235 136.402C262.235 135.472 262.59 134.561 263.301 133.667C266.418 135.126 269.317 135.855 271.996 135.855C273.673 135.855 274.922 135.581 275.742 135.035C276.563 134.488 276.973 133.613 276.973 132.41C276.973 131.115 276.348 130.09 275.1 129.333C273.851 128.577 271.896 127.679 269.235 126.64C266.61 125.637 264.796 124.58 263.793 123.468C262.791 122.356 262.289 120.943 262.289 119.23C262.289 116.915 263.283 115.046 265.27 113.624C267.257 112.202 270.182 111.492 274.047 111.492Z"/>
<path d="M298.711 136.156C298.93 136.63 299.039 137.14 299.039 137.687C299.039 138.179 298.939 138.516 298.738 138.699C298.538 138.881 298.155 138.972 297.59 138.972L287.254 138.972C287.017 138.389 286.899 137.842 286.899 137.331C286.899 136.93 286.999 136.634 287.199 136.443C287.4 136.251 287.728 136.156 288.184 136.156L290.207 136.156C290.353 133.622 290.426 129.338 290.426 123.304C290.426 115.593 290.389 110.685 290.317 108.579C290.244 106.474 290.111 105.102 289.92 104.464C289.729 103.826 289.414 103.416 288.977 103.234C288.539 103.051 287.965 102.96 287.254 102.96C287.017 102.395 286.899 101.839 286.899 101.292C286.899 100.727 287.131 100.372 287.596 100.226C288.061 100.08 289.56 100.007 292.094 100.007C293.534 100.007 294.509 100.076 295.02 100.212C295.53 100.349 295.822 100.604 295.895 100.978C295.968 101.352 296.004 101.994 296.004 102.906L296.004 124.452C297.608 123.213 299.294 121.773 301.063 120.132C302.831 118.492 304.417 116.869 305.82 115.265L303.906 115.265C303.669 114.736 303.551 114.199 303.551 113.652C303.551 113.105 303.656 112.722 303.865 112.503C304.075 112.285 304.426 112.175 304.918 112.175L313.449 112.175C313.668 112.686 313.778 113.232 313.778 113.816C313.778 114.381 313.664 114.764 313.436 114.964C313.208 115.165 312.793 115.265 312.192 115.265L311.098 115.265L302.895 122.894C305.611 127.032 307.689 130.026 309.129 131.876C310.569 133.727 311.622 134.902 312.287 135.404C312.953 135.905 313.723 136.156 314.598 136.156C314.871 137.104 314.839 137.81 314.502 138.275C314.165 138.74 313.012 138.972 311.043 138.972C309.257 138.972 308.122 138.835 307.639 138.562C307.156 138.288 306.677 137.755 306.203 136.962C305.729 136.169 304.991 134.93 303.988 133.244C302.986 131.557 301.418 129.083 299.285 125.82L296.004 128.882C296.022 131.197 296.095 133.622 296.223 136.156L298.711 136.156Z"/>
<path d="M330.512 115.156C328.689 115.156 327.304 115.807 326.356 117.111C325.408 118.414 324.888 120.451 324.797 123.222L327.613 123.222C330.603 123.222 332.64 123.163 333.725 123.044C334.809 122.926 335.438 122.73 335.611 122.456C335.785 122.183 335.871 121.673 335.871 120.925C335.871 119.12 335.416 117.708 334.504 116.687C333.593 115.666 332.262 115.156 330.512 115.156ZM331.551 111.492C334.942 111.492 337.457 112.294 339.098 113.898C340.738 115.502 341.559 118.145 341.559 121.827C341.559 123.45 341.267 124.58 340.684 125.218C340.1 125.856 338.824 126.175 336.856 126.175L324.77 126.175C324.806 129.147 325.403 131.48 326.561 133.175C327.718 134.87 329.764 135.718 332.699 135.718C335.434 135.718 337.977 135.007 340.328 133.585C341.112 134.369 341.504 135.199 341.504 136.074C341.504 137.295 340.497 138.152 338.483 138.644C336.468 139.136 334.194 139.382 331.66 139.382C326.994 139.382 323.644 138.393 321.611 136.415C319.579 134.438 318.563 131.106 318.563 126.421C318.563 121.809 319.707 118.168 321.994 115.497C324.282 112.827 327.468 111.492 331.551 111.492Z"/>
<path d="M349.625 112.175L351.84 104.41C352.606 104.647 353.257 104.929 353.795 105.257C354.333 105.585 354.729 105.973 354.985 106.419C355.24 106.866 355.367 108.411 355.367 111.054L355.367 112.175L364.363 112.175C364.582 112.777 364.692 113.415 364.692 114.089C364.692 114.618 364.591 114.969 364.391 115.142C364.19 115.315 363.789 115.402 363.188 115.402L355.367 115.402L355.367 128.335C355.367 131.416 355.65 133.444 356.215 134.419C356.78 135.395 357.632 135.91 358.772 135.964C359.911 136.019 361.31 135.645 362.969 134.843C363.37 135.445 363.57 136.101 363.57 136.812C363.57 137.778 363.037 138.425 361.971 138.753C360.904 139.081 359.223 139.245 356.926 139.245C354.429 139.245 352.61 138.735 351.471 137.714C350.332 136.693 349.762 134.788 349.762 131.999L349.762 125.574C349.762 122.074 349.662 118.683 349.461 115.402L346.781 115.402C346.563 114.745 346.453 114.107 346.453 113.488C346.453 113.032 346.554 112.699 346.754 112.49C346.955 112.28 347.292 112.175 347.766 112.175L349.625 112.175Z"/>
<path d="M380.524 115.156C378.701 115.156 377.315 115.807 376.367 117.111C375.419 118.414 374.9 120.451 374.809 123.222L377.625 123.222C380.615 123.222 382.652 123.163 383.736 123.044C384.821 122.926 385.45 122.73 385.623 122.456C385.796 122.183 385.883 121.673 385.883 120.925C385.883 119.12 385.427 117.708 384.516 116.687C383.604 115.666 382.274 115.156 380.524 115.156ZM381.563 111.492C384.953 111.492 387.469 112.294 389.11 113.898C390.75 115.502 391.57 118.145 391.57 121.827C391.57 123.45 391.279 124.58 390.695 125.218C390.112 125.856 388.836 126.175 386.867 126.175L374.781 126.175C374.818 129.147 375.415 131.48 376.572 133.175C377.73 134.87 379.776 135.718 382.711 135.718C385.445 135.718 387.988 135.007 390.34 133.585C391.124 134.369 391.516 135.199 391.516 136.074C391.516 137.295 390.509 138.152 388.494 138.644C386.48 139.136 384.206 139.382 381.672 139.382C377.005 139.382 373.656 138.393 371.623 136.415C369.591 134.438 368.574 131.106 368.574 126.421C368.574 121.809 369.718 118.168 372.006 115.497C374.294 112.827 377.479 111.492 381.563 111.492Z"/>
<path d="M408.606 115.156C406.783 115.156 405.397 115.807 404.449 117.111C403.501 118.414 402.982 120.451 402.891 123.222L405.707 123.222C408.697 123.222 410.734 123.163 411.819 123.044C412.903 122.926 413.532 122.73 413.705 122.456C413.878 122.183 413.965 121.673 413.965 120.925C413.965 119.12 413.509 117.708 412.598 116.687C411.686 115.666 410.356 115.156 408.606 115.156ZM409.645 111.492C413.035 111.492 415.551 112.294 417.192 113.898C418.832 115.502 419.653 118.145 419.653 121.827C419.653 123.45 419.361 124.58 418.778 125.218C418.194 125.856 416.918 126.175 414.949 126.175L402.863 126.175C402.9 129.147 403.497 131.48 404.654 133.175C405.812 134.87 407.858 135.718 410.793 135.718C413.528 135.718 416.07 135.007 418.422 133.585C419.206 134.369 419.598 135.199 419.598 136.074C419.598 137.295 418.591 138.152 416.576 138.644C414.562 139.136 412.288 139.382 409.754 139.382C405.087 139.382 401.738 138.393 399.705 136.415C397.673 134.438 396.656 131.106 396.656 126.421C396.656 121.809 397.8 118.168 400.088 115.497C402.376 112.827 405.561 111.492 409.645 111.492Z"/>
<path d="M424.738 113.269C424.738 112.777 424.93 112.462 425.313 112.326C425.695 112.189 428.111 112.048 432.559 111.902C432.668 112.74 432.668 113.861 432.559 115.265C434.582 113.898 436.528 112.95 438.397 112.421C440.265 111.893 441.965 111.628 443.496 111.628C444.007 111.628 444.348 111.688 444.522 111.806C444.695 111.924 444.781 112.184 444.781 112.585C444.781 113.369 444.658 114.208 444.412 115.101C444.166 115.994 443.87 116.559 443.524 116.796C443.177 117.033 442.603 117.216 441.801 117.343C440.999 117.471 440.529 117.498 440.393 117.425C440.256 117.352 439.841 116.851 439.149 115.921C437.526 115.921 436.214 116.436 435.211 117.466C434.209 118.496 433.707 120.57 433.707 123.687C433.725 129.283 433.798 133.439 433.926 136.156L437.781 136.156C438 136.63 438.11 137.14 438.11 137.687C438.11 138.179 438.009 138.516 437.809 138.699C437.608 138.881 437.225 138.972 436.66 138.972L425.094 138.972C424.857 138.389 424.738 137.842 424.738 137.331C424.738 136.93 424.839 136.634 425.039 136.443C425.24 136.251 425.568 136.156 426.024 136.156L427.91 136.156C428.056 133.439 428.129 129.885 428.129 125.492C428.129 120.114 427.919 116.997 427.5 116.14C427.081 115.283 426.279 114.855 425.094 114.855C424.857 114.344 424.738 113.816 424.738 113.269Z"/>
<path d="M459.957 111.492C462.363 111.492 464.273 111.724 465.686 112.189C467.098 112.654 467.805 113.406 467.805 114.445C467.805 115.52 467.349 116.587 466.438 117.644C462.865 115.985 460.039 115.156 457.961 115.156C456.557 115.156 455.505 115.42 454.803 115.949C454.101 116.477 453.75 117.243 453.75 118.245C453.75 119.285 454.147 120.141 454.94 120.816C455.733 121.49 457.36 122.283 459.82 123.195C462.919 124.288 465.125 125.423 466.438 126.599C467.75 127.775 468.406 129.393 468.406 131.452C468.406 134.059 467.404 136.055 465.399 137.441C463.393 138.826 460.541 139.519 456.84 139.519C454.014 139.519 451.859 139.318 450.373 138.917C448.888 138.516 448.145 137.678 448.145 136.402C448.145 135.472 448.5 134.561 449.211 133.667C452.328 135.126 455.227 135.855 457.906 135.855C459.584 135.855 460.832 135.581 461.653 135.035C462.473 134.488 462.883 133.613 462.883 132.41C462.883 131.115 462.259 130.09 461.01 129.333C459.761 128.577 457.806 127.679 455.145 126.64C452.52 125.637 450.706 124.58 449.703 123.468C448.701 122.356 448.199 120.943 448.199 119.23C448.199 116.915 449.193 115.046 451.18 113.624C453.167 112.202 456.093 111.492 459.957 111.492Z"/>
</g>
<path d="M83.7188 80.5312C75.8901 80.5313 69.5312 86.8589 69.5312 94.6875C69.5312 102.516 75.8901 108.875 83.7188 108.875C91.5474 108.875 97.875 102.516 97.875 94.6875C97.875 91.0178 96.4442 87.7048 94.1562 85.1875C93.3441 85.8654 92.5147 86.7085 92.1562 87.6875C92.0064 88.0959 91.9127 88.5628 91.8125 89C91.6796 89.579 91.5366 90.1102 91.3125 90.5312C91.0022 91.1124 90.0895 91.444 89.1875 91.75C88.8572 91.8621 88.3641 92.0146 88.1875 92.125C88.0721 92.3359 87.9786 92.5409 87.875 92.7188C87.765 92.9437 87.6046 93.2148 87.4688 93.5L87.375 93.5C87.0808 93.5 86.8025 93.5117 86.5312 93.5312C86.6229 93.5245 86.9435 92.6471 87 92.5312C87.1537 92.2167 87.3036 91.9028 87.4688 91.5938C87.8542 90.873 88.2994 90.17 88.7188 89.4688C89.8868 87.5155 91.379 85.5478 93.375 84.375C90.839 81.9929 87.4726 80.5312 83.7188 80.5312ZM84.4062 90.9375C85.3779 90.9375 86.0828 91.2006 86.5625 91.5312C86.3579 91.9243 86.0033 92.6519 85.5312 93.6562C83.4568 94.0073 82.1492 94.892 81.2188 95.5312C80.6971 95.8899 80.2826 96.1885 79.9375 96.25C79.707 96.2907 79.553 96.4878 79.5938 96.7188C79.6307 96.9242 79.7979 97.0938 80 97.0938C80.0246 97.0938 80.0687 97.0672 80.0938 97.0625C80.6201 96.9691 81.0809 96.6356 81.6875 96.2188C82.8459 95.422 84.4495 94.3438 87.375 94.3438L89.6875 94.3438C89.8947 94.3926 90.059 94.5265 90.1562 94.7188C90.267 94.939 90.2793 95.1927 90.1562 95.4062L88.375 98.4688C88.2243 98.729 87.9538 98.8575 87.6562 98.8125C87.2785 98.7569 86.1591 98.625 84.0312 98.625C83.1933 98.625 81.8887 98.8288 80.625 99.0312C79.355 99.235 78.1717 99.4375 77.375 99.4375C74.9232 99.4375 74.0361 98.089 74 98.0312C73.9193 97.9035 73.8987 97.7275 73.9688 97.5938C74.0388 97.46 74.1931 97.3822 74.3438 97.375C74.3607 97.3741 75.9728 97.299 77.4062 96.9688C78.7336 94.6694 80.9183 90.9375 84.4062 90.9375Z" fill="#454372" fill-rule="nonzero" opacity="1" stroke="none" vectornator:layerName="Curve 1"/>
<g opacity="1" vectornator:layerName="Group 12">
<path d="M83.5273 0.00322332C81.9014-0.0768118 80.4972 1.34524 80.5586 2.97197L80.1211 75.6595C80.1162 76.508 80.4727 77.2867 80.9648 77.7845C81.457 78.2823 82.2413 78.6233 83.0898 78.6282C84.7869 78.638 86.12 77.3174 86.0586 75.6907L86.4961 3.00322C86.5058 1.30619 85.1541-0.0581609 83.5273 0.00322332Z" fill="#454372" fill-rule="nonzero" opacity="1" stroke="none" vectornator:layerName="Curve 1"/>
<path d="M83.6663 113.227C81.7557 112.881 80.062 114.299 80.0693 116.137L80.1237 134.669C80.1254 135.093 79.7841 135.573 79.2894 135.646C68.5493 137.668 60.2462 147.173 60.2909 158.487C60.2943 159.336 60.6583 160.111 61.1552 160.604C61.6521 161.097 62.4088 161.462 63.2573 161.459L73.32 161.424C73.8856 161.421 74.2961 161.849 74.2983 162.414L74.3783 180.352C74.3883 182.897 75.4637 185.112 77.0964 186.732C78.7292 188.352 80.9911 189.328 83.4662 189.389C88.4159 189.37 92.43 185.314 92.4105 180.365L92.3303 162.396C92.328 161.83 92.7552 161.42 93.3208 161.417L103.352 161.383C105.049 161.376 106.4 160.011 106.323 158.385C106.279 147.072 97.9687 137.553 87.0721 135.758C86.5768 135.689 86.2209 135.332 86.2187 134.766L86.0714 116.329C86.0658 114.915 85.0816 113.505 83.6663 113.227ZM83.1886 141.358C87.8555 141.34 92.1843 143.245 95.2368 146.273C97.6504 148.668 99.3611 151.765 100.011 155.227L66.4809 155.49C67.8639 147.564 74.7744 141.462 83.1886 141.358ZM81.2895 161.471L85.2581 161.433C85.8238 161.431 86.2655 161.858 86.2677 162.423L86.3167 180.392C86.3234 182.089 85.0032 183.423 83.3766 183.359C81.7499 183.294 80.3149 182.045 80.3792 180.419L80.299 162.45C80.2967 161.884 80.7239 161.474 81.2895 161.471Z" fill="#454372" fill-rule="nonzero" opacity="1" stroke="none" vectornator:layerName="Curve 2"/>
</g>
<g opacity="1" vectornator:layerName="Group 8">
<path d="M166.107 46.5037C165.363 45.0556 163.43 44.5505 162.052 45.417L98.8838 81.3819C98.1465 81.8019 97.6504 82.5 97.4653 83.1751C97.2803 83.8502 97.3771 84.7 97.7971 85.4373C98.6372 86.9118 100.447 87.4061 101.825 86.5396L164.993 50.5747C166.468 49.7346 166.974 47.8818 166.107 46.5037Z" fill="#454372" fill-rule="nonzero" opacity="1" stroke="none" vectornator:layerName="Curve 1"/>
<path d="M68.1215 103.236C67.4659 101.408 65.3915 100.651 63.8029 101.576L47.7813 110.889C47.4147 111.103 46.8284 111.047 46.5182 110.655C39.3967 102.365 27.0134 99.9267 17.2378 105.622C16.5046 106.049 16.0153 106.752 15.8368 107.429C15.6583 108.106 15.7205 108.944 16.1477 109.677L21.2093 118.374C21.494 118.863 21.3294 119.432 20.8406 119.717L5.34616 128.755C3.14666 130.036 1.7663 132.075 1.1798 134.299C0.593288 136.523 0.878703 138.97 2.06348 141.144C4.55526 145.42 10.0743 146.869 14.3511 144.377L29.8724 135.324C30.3612 135.039 30.9302 135.203 31.215 135.692L36.2607 144.362C37.115 145.829 38.9727 146.316 40.3423 145.437C50.1179 139.741 54.2058 127.785 50.3124 117.451C50.1243 116.988 50.2558 116.501 50.7446 116.216L66.6378 106.87C67.8598 106.158 68.5891 104.6 68.1215 103.236ZM43.5206 116.888C45.87 120.92 46.3849 125.621 45.2883 129.779C44.4213 133.067 42.5943 136.097 39.921 138.391L22.9288 109.484C30.4836 106.719 39.2235 109.653 43.5206 116.888ZM25.1526 125.3L27.1702 128.717C27.455 129.206 27.3062 129.802 26.8174 130.087L11.2802 139.114C9.81384 139.968 7.99898 139.492 7.24137 138.051C6.48374 136.61 6.84786 134.743 8.28869 133.985L23.81 124.931C24.2988 124.646 24.8678 124.811 25.1526 125.3Z" fill="#454372" fill-rule="nonzero" opacity="1" stroke="none" vectornator:layerName="Curve 2"/>
</g>
<g opacity="1" vectornator:layerName="Group 11">
<path d="M0.430289 46.4233C-0.451981 47.7914 0.0774486 49.7185 1.51693 50.4787L64.2474 87.2014C64.9798 87.6298 65.8324 87.7104 66.5096 87.5332C67.1868 87.3559 67.8743 86.8471 68.3028 86.1147C69.1597 84.6499 68.6827 82.8351 67.2432 82.075L4.51274 45.3523C3.04794 44.4954 1.19049 44.9839 0.430289 46.4233Z" fill="#454372" fill-rule="nonzero" opacity="1" stroke="none" vectornator:layerName="Curve 1"/>
<path d="M98.5548 102.915C97.2999 104.397 97.6806 106.572 99.2764 107.485L115.352 116.704C115.721 116.915 115.966 117.45 115.781 117.915C112.163 128.227 116.243 140.171 126.063 145.789C126.8 146.21 127.653 146.282 128.328 146.099C129.004 145.915 129.698 145.442 130.12 144.705L135.121 135.973C135.402 135.482 135.977 135.34 136.468 135.621L152.042 144.521C154.252 145.785 156.707 145.961 158.927 145.357C161.146 144.753 163.122 143.282 164.413 141.169C166.871 136.873 165.366 131.369 161.069 128.911L145.468 119.996C144.977 119.715 144.835 119.14 145.116 118.649L150.102 109.944C150.944 108.471 150.438 106.619 148.991 105.872C139.171 100.254 126.773 102.692 119.77 111.231C119.463 111.625 118.975 111.755 118.484 111.474L102.444 102.383C101.216 101.681 99.5025 101.828 98.5548 102.915ZM122.678 117.394C124.996 113.343 128.809 110.547 132.959 109.418C136.239 108.525 139.777 108.592 143.1 109.76L126.562 138.929C120.39 133.769 118.561 124.733 122.678 117.394ZM139.147 129.095L141.098 125.639C141.379 125.148 141.969 124.979 142.46 125.26L158.047 134.202C159.52 135.045 160.014 136.855 159.145 138.232C158.276 139.608 156.477 140.226 155.101 139.357L139.499 130.443C139.008 130.162 138.866 129.586 139.147 129.095Z" fill="#454372" fill-rule="nonzero" opacity="1" stroke="none" vectornator:layerName="Curve 2"/>
</g>
</g>
</g>
</g>
</svg>
