<?xml version="1.0" encoding="UTF-8" standalone="no"?>
<!DOCTYPE svg PUBLIC "-//W3C//DTD SVG 1.1//EN" "http://www.w3.org/Graphics/SVG/1.1/DTD/svg11.dtd">
<!-- Created with Vectornator (http://vectornator.io/) -->
<svg height="100%" stroke-miterlimit="10" style="fill-rule:nonzero;clip-rule:evenodd;stroke-linecap:round;stroke-linejoin:round;" version="1.1" viewBox="0 0 166.711 189.863" width="100%" xml:space="preserve" xmlns="http://www.w3.org/2000/svg" xmlns:vectornator="http://vectornator.io" xmlns:xlink="http://www.w3.org/1999/xlink">
<defs/>
<clipPath id="ArtboardFrame">
<rect height="189.863" width="166.711" x="0" y="0"/>
</clipPath>
<g clip-path="url(#ArtboardFrame)" id="Layer-1" vectornator:layerName="Layer 1">
<g opacity="1" vectornator:layerName="Group 13">
<path d="M83.7188 80.5312C75.8901 80.5313 69.5312 86.8589 69.5312 94.6875C69.5312 102.516 75.8901 108.875 83.7188 108.875C91.5474 108.875 97.875 102.516 97.875 94.6875C97.875 91.0178 96.4442 87.7048 94.1562 85.1875C93.3441 85.8654 92.5147 86.7085 92.1562 87.6875C92.0064 88.0959 91.9127 88.5628 91.8125 89C91.6796 89.579 91.5366 90.1102 91.3125 90.5312C91.0022 91.1124 90.0895 91.444 89.1875 91.75C88.8572 91.8621 88.3641 92.0146 88.1875 92.125C88.0721 92.3359 87.9786 92.5409 87.875 92.7188C87.765 92.9437 87.6046 93.2148 87.4688 93.5L87.375 93.5C87.0808 93.5 86.8025 93.5117 86.5312 93.5312C86.6229 93.5245 86.9435 92.6471 87 92.5312C87.1537 92.2167 87.3036 91.9028 87.4688 91.5938C87.8542 90.873 88.2994 90.17 88.7188 89.4688C89.8868 87.5155 91.379 85.5478 93.375 84.375C90.839 81.9929 87.4726 80.5312 83.7188 80.5312ZM84.4062 90.9375C85.3779 90.9375 86.0828 91.2006 86.5625 91.5312C86.3579 91.9243 86.0033 92.6519 85.5312 93.6562C83.4568 94.0073 82.1492 94.892 81.2188 95.5312C80.6971 95.8899 80.2826 96.1885 79.9375 96.25C79.707 96.2907 79.553 96.4878 79.5938 96.7188C79.6307 96.9242 79.7979 97.0938 80 97.0938C80.0246 97.0938 80.0687 97.0672 80.0938 97.0625C80.6201 96.9691 81.0809 96.6356 81.6875 96.2188C82.8459 95.422 84.4495 94.3438 87.375 94.3438L89.6875 94.3438C89.8947 94.3926 90.059 94.5265 90.1562 94.7188C90.267 94.939 90.2793 95.1927 90.1562 95.4062L88.375 98.4688C88.2243 98.729 87.9538 98.8575 87.6562 98.8125C87.2785 98.7569 86.1591 98.625 84.0312 98.625C83.1933 98.625 81.8887 98.8288 80.625 99.0312C79.355 99.235 78.1717 99.4375 77.375 99.4375C74.9232 99.4375 74.0361 98.089 74 98.0312C73.9193 97.9035 73.8987 97.7275 73.9688 97.5938C74.0388 97.46 74.1931 97.3822 74.3438 97.375C74.3607 97.3741 75.9728 97.299 77.4062 96.9688C78.7336 94.6694 80.9183 90.9375 84.4062 90.9375Z" fill="#454372" fill-rule="nonzero" opacity="1" stroke="none" vectornator:layerName="Curve 1"/>
<g opacity="1" vectornator:layerName="Group 12">
<path d="M83.5273 0.00322332C81.9014-0.0768118 80.4972 1.34524 80.5586 2.97197L80.1211 75.6595C80.1162 76.508 80.4727 77.2867 80.9648 77.7845C81.457 78.2823 82.2413 78.6233 83.0898 78.6282C84.7869 78.638 86.12 77.3174 86.0586 75.6907L86.4961 3.00322C86.5058 1.30619 85.1541-0.0581609 83.5273 0.00322332Z" fill="#454372" fill-rule="nonzero" opacity="1" stroke="none" vectornator:layerName="Curve 1"/>
<path d="M83.6663 113.227C81.7557 112.881 80.062 114.299 80.0693 116.137L80.1237 134.669C80.1254 135.093 79.7841 135.573 79.2894 135.646C68.5493 137.668 60.2462 147.173 60.2909 158.487C60.2943 159.336 60.6583 160.111 61.1552 160.604C61.6521 161.097 62.4088 161.462 63.2573 161.459L73.32 161.424C73.8856 161.421 74.2961 161.849 74.2983 162.414L74.3783 180.352C74.3883 182.897 75.4637 185.112 77.0964 186.732C78.7292 188.352 80.9911 189.328 83.4662 189.389C88.4159 189.37 92.43 185.314 92.4105 180.365L92.3303 162.396C92.328 161.83 92.7552 161.42 93.3208 161.417L103.352 161.383C105.049 161.376 106.4 160.011 106.323 158.385C106.279 147.072 97.9687 137.553 87.0721 135.758C86.5768 135.689 86.2209 135.332 86.2187 134.766L86.0714 116.329C86.0658 114.915 85.0816 113.505 83.6663 113.227ZM83.1886 141.358C87.8555 141.34 92.1843 143.245 95.2368 146.273C97.6504 148.668 99.3611 151.765 100.011 155.227L66.4809 155.49C67.8639 147.564 74.7744 141.462 83.1886 141.358ZM81.2895 161.471L85.2581 161.433C85.8238 161.431 86.2655 161.858 86.2677 162.423L86.3167 180.392C86.3234 182.089 85.0032 183.423 83.3766 183.359C81.7499 183.294 80.3149 182.045 80.3792 180.419L80.299 162.45C80.2967 161.884 80.7239 161.474 81.2895 161.471Z" fill="#454372" fill-rule="nonzero" opacity="1" stroke="none" vectornator:layerName="Curve 2"/>
</g>
<g opacity="1" vectornator:layerName="Group 8">
<path d="M166.107 46.5037C165.363 45.0556 163.43 44.5505 162.052 45.417L98.8838 81.3819C98.1465 81.8019 97.6504 82.5 97.4653 83.1751C97.2803 83.8502 97.3771 84.7 97.7971 85.4373C98.6372 86.9118 100.447 87.4061 101.825 86.5396L164.993 50.5747C166.468 49.7346 166.974 47.8818 166.107 46.5037Z" fill="#454372" fill-rule="nonzero" opacity="1" stroke="none" vectornator:layerName="Curve 1"/>
<path d="M68.1215 103.236C67.4659 101.408 65.3915 100.651 63.8029 101.576L47.7813 110.889C47.4147 111.103 46.8284 111.047 46.5182 110.655C39.3967 102.365 27.0134 99.9267 17.2378 105.622C16.5046 106.049 16.0153 106.752 15.8368 107.429C15.6583 108.106 15.7205 108.944 16.1477 109.677L21.2093 118.374C21.494 118.863 21.3294 119.432 20.8406 119.717L5.34616 128.755C3.14666 130.036 1.7663 132.075 1.1798 134.299C0.593288 136.523 0.878703 138.97 2.06348 141.144C4.55526 145.42 10.0743 146.869 14.3511 144.377L29.8724 135.324C30.3612 135.039 30.9302 135.203 31.215 135.692L36.2607 144.362C37.115 145.829 38.9727 146.316 40.3423 145.437C50.1179 139.741 54.2058 127.785 50.3124 117.451C50.1243 116.988 50.2558 116.501 50.7446 116.216L66.6378 106.87C67.8598 106.158 68.5891 104.6 68.1215 103.236ZM43.5206 116.888C45.87 120.92 46.3849 125.621 45.2883 129.779C44.4213 133.067 42.5943 136.097 39.921 138.391L22.9288 109.484C30.4836 106.719 39.2235 109.653 43.5206 116.888ZM25.1526 125.3L27.1702 128.717C27.455 129.206 27.3062 129.802 26.8174 130.087L11.2802 139.114C9.81384 139.968 7.99898 139.492 7.24137 138.051C6.48374 136.61 6.84786 134.743 8.28869 133.985L23.81 124.931C24.2988 124.646 24.8678 124.811 25.1526 125.3Z" fill="#454372" fill-rule="nonzero" opacity="1" stroke="none" vectornator:layerName="Curve 2"/>
</g>
<g opacity="1" vectornator:layerName="Group 11">
<path d="M0.430289 46.4233C-0.451981 47.7914 0.0774486 49.7185 1.51693 50.4787L64.2474 87.2014C64.9798 87.6298 65.8324 87.7104 66.5096 87.5332C67.1868 87.3559 67.8743 86.8471 68.3028 86.1147C69.1597 84.6499 68.6827 82.8351 67.2432 82.075L4.51274 45.3523C3.04794 44.4954 1.19049 44.9839 0.430289 46.4233Z" fill="#454372" fill-rule="nonzero" opacity="1" stroke="none" vectornator:layerName="Curve 1"/>
<path d="M98.5548 102.915C97.2999 104.397 97.6806 106.572 99.2764 107.485L115.352 116.704C115.721 116.915 115.966 117.45 115.781 117.915C112.163 128.227 116.243 140.171 126.063 145.789C126.8 146.21 127.653 146.282 128.328 146.099C129.004 145.915 129.698 145.442 130.12 144.705L135.121 135.973C135.402 135.482 135.977 135.34 136.468 135.621L152.042 144.521C154.252 145.785 156.707 145.961 158.927 145.357C161.146 144.753 163.122 143.282 164.413 141.169C166.871 136.873 165.366 131.369 161.069 128.911L145.468 119.996C144.977 119.715 144.835 119.14 145.116 118.649L150.102 109.944C150.944 108.471 150.438 106.619 148.991 105.872C139.171 100.254 126.773 102.692 119.77 111.231C119.463 111.625 118.975 111.755 118.484 111.474L102.444 102.383C101.216 101.681 99.5025 101.828 98.5548 102.915ZM122.678 117.394C124.996 113.343 128.809 110.547 132.959 109.418C136.239 108.525 139.777 108.592 143.1 109.76L126.562 138.929C120.39 133.769 118.561 124.733 122.678 117.394ZM139.147 129.095L141.098 125.639C141.379 125.148 141.969 124.979 142.46 125.26L158.047 134.202C159.52 135.045 160.014 136.855 159.145 138.232C158.276 139.608 156.477 140.226 155.101 139.357L139.499 130.443C139.008 130.162 138.866 129.586 139.147 129.095Z" fill="#454372" fill-rule="nonzero" opacity="1" stroke="none" vectornator:layerName="Curve 2"/>
</g>
</g>
</g>
</svg>
